<?xml version="1.0" standalone="no"?>
<!DOCTYPE svg PUBLIC "-//W3C//DTD SVG 20010904//EN"
 "http://www.w3.org/TR/2001/REC-SVG-20010904/DTD/svg10.dtd">
<svg version="1.0" xmlns="http://www.w3.org/2000/svg"
 width="220.000000pt" height="220.000000pt" viewBox="0 0 220.000000 220.000000"
 preserveAspectRatio="xMidYMid meet">
<metadata>
Created by potrace 1.11, written by Peter Selinger 2001-2013
</metadata>
<g transform="translate(0.000000,220.000000) scale(0.100000,-0.100000)"
fill="#000000" stroke="none">
<path d="M710 2024 c-8 -3 -24 -9 -35 -14 -11 -5 -29 -10 -39 -12 -43 -7 -17
-23 44 -29 64 -6 227 -66 259 -95 23 -21 4 -30 -32 -15 -131 55 -258 82 -292
64 -15 -9 -14 -12 15 -27 18 -9 40 -16 48 -16 25 0 136 -63 164 -93 14 -16 32
-43 39 -60 7 -18 19 -39 26 -48 19 -23 7 -67 -20 -74 -74 -22 -107 -39 -107
-57 0 -11 11 -23 27 -29 37 -14 43 -25 43 -88 0 -36 -5 -60 -16 -72 -15 -17
-15 -22 9 -71 22 -45 24 -60 17 -97 -4 -25 -6 -50 -3 -57 6 -18 -56 -94 -87
-106 -80 -33 -170 -26 -170 12 0 10 5 20 11 22 7 2 9 13 4 27 -7 21 -11 23
-56 17 -58 -8 -63 5 -26 57 29 42 28 41 103 56 37 8 68 20 71 28 7 17 -6 31
-15 17 -4 -6 -20 -14 -37 -17 -16 -3 -46 -9 -65 -14 -65 -17 -73 -6 -29 38 51
51 51 69 1 69 -21 0 -43 -5 -49 -11 -15 -15 -79 -28 -94 -18 -9 5 -21 -7 -41
-42 -23 -40 -28 -59 -26 -101 l3 -52 -42 -10 c-57 -15 -83 -41 -83 -85 0 -24
8 -43 27 -63 l26 -27 -16 -53 c-19 -66 -49 -144 -71 -183 -9 -16 -16 -46 -16
-66 0 -20 -7 -53 -15 -72 -8 -20 -18 -75 -21 -124 -6 -82 -16 -117 -65 -215
-17 -35 -10 -38 81 -38 93 0 100 4 78 40 -11 17 -9 27 12 65 14 25 42 59 62
76 30 23 38 37 38 62 0 26 8 39 40 63 35 27 52 32 146 42 82 9 110 9 121 0 20
-16 43 -63 43 -87 0 -25 20 -38 31 -20 5 8 9 27 9 43 0 32 26 148 40 181 20
46 40 120 40 146 0 15 5 40 11 56 l11 28 10 -25 c5 -14 17 -54 26 -89 l17 -65
58 -11 c52 -10 60 -10 65 4 11 31 92 151 102 151 5 0 21 -22 34 -48 l24 -48
-60 -64 c-64 -69 -85 -107 -69 -123 7 -7 14 -1 22 16 7 15 16 27 21 27 5 0 33
22 62 50 29 27 56 50 59 50 17 0 -1 -100 -64 -354 -22 -87 -38 -160 -37 -162
4 -3 566 -6 831 -5 l188 1 -4 208 c-4 200 -22 355 -46 400 -18 33 -66 68 -127
91 -195 74 -199 76 -202 104 -3 22 -16 33 -73 63 -95 50 -105 64 -112 171 -8
111 -50 230 -174 503 -62 135 -92 178 -163 226 -19 13 -53 36 -75 51 -40 28
-40 28 -235 30 -107 1 -202 0 -210 -3z"/>
<path d="M550 1659 c-25 -11 -57 -32 -72 -46 -24 -23 -25 -28 -15 -57 16 -46
63 -117 90 -135 14 -9 36 -24 49 -34 29 -20 58 -13 58 13 0 11 15 25 38 36 28
14 33 19 19 22 -13 3 -17 10 -13 24 2 12 1 44 -4 72 -8 40 -18 59 -50 89 -21
20 -43 37 -47 37 -4 0 -28 -10 -53 -21z"/>
<path d="M420 1551 c0 -6 5 -13 10 -16 6 -3 10 1 10 9 0 9 -4 16 -10 16 -5 0
-10 -4 -10 -9z"/>
<path d="M373 1486 c5 -32 12 -50 48 -131 13 -30 13 -30 17 -5 2 13 17 37 32
53 l28 29 -22 33 c-26 42 -38 45 -23 6 11 -29 4 -66 -12 -57 -4 3 -11 22 -14
42 -7 41 -23 64 -45 64 -11 0 -13 -8 -9 -34z"/>
<path d="M751 314 c0 -11 3 -14 6 -6 3 7 2 16 -1 19 -3 4 -6 -2 -5 -13z"/>
<path d="M760 265 c0 -14 4 -25 9 -25 4 0 6 11 3 25 -2 14 -6 25 -8 25 -2 0
-4 -11 -4 -25z"/>
</g>
</svg>
